<?xml version="1.0" encoding="utf-8" standalone="no"?>
<!DOCTYPE svg PUBLIC "-//W3C//DTD SVG 1.1//EN"
  "http://www.w3.org/Graphics/SVG/1.1/DTD/svg11.dtd">
<svg xmlns:xlink="http://www.w3.org/1999/xlink" width="864pt" height="396pt" viewBox="0 0 864 396" xmlns="http://www.w3.org/2000/svg" version="1.1">
 <metadata>
  <rdf:RDF xmlns:dc="http://purl.org/dc/elements/1.1/" xmlns:cc="http://creativecommons.org/ns#" xmlns:rdf="http://www.w3.org/1999/02/22-rdf-syntax-ns#">
   <cc:Work>
    <dc:type rdf:resource="http://purl.org/dc/dcmitype/StillImage"/>
    <dc:date>2026-07-28T15:31:11.426168</dc:date>
    <dc:format>image/svg+xml</dc:format>
    <dc:creator>
     <cc:Agent>
      <dc:title>Matplotlib v3.10.9, https://matplotlib.org/</dc:title>
     </cc:Agent>
    </dc:creator>
   </cc:Work>
  </rdf:RDF>
 </metadata>
 <defs>
  <style type="text/css">*{stroke-linejoin: round; stroke-linecap: butt}</style>
 </defs>
 <g id="figure_1">
  <g id="patch_1">
   <path d="M 0 396 
L 864 396 
L 864 0 
L 0 0 
z
" style="fill: #ffffff"/>
  </g>
  <g id="axes_1">
   <g id="patch_2">
    <path d="M 47.3 355 
L 421.83 355 
L 421.83 25.92 
L 47.3 25.92 
z
" style="fill: #ffffff"/>
   </g>
   <g id="matplotlib.axis_1">
    <g id="xtick_1">
     <g id="line2d_1">
      <defs>
       <path id="m4b24dfd430" d="M 0 0 
L 0 3.5 
" style="stroke: #000000; stroke-width: 0.8"/>
      </defs>
      <g>
       <use xlink:href="#m4b24dfd430" x="64.324091" y="355" style="stroke: #000000; stroke-width: 0.8"/>
      </g>
     </g>
     <g id="text_1">
      <!-- 0.0 -->
      <g transform="translate(56.372528 369.598437) scale(0.1 -0.1)">
       <defs>
        <path id="DejaVuSans-30" d="M 2034 4250 
Q 1547 4250 1301 3770 
Q 1056 3291 1056 2328 
Q 1056 1369 1301 889 
Q 1547 409 2034 409 
Q 2525 409 2770 889 
Q 3016 1369 3016 2328 
Q 3016 3291 2770 3770 
Q 2525 4250 2034 4250 
z
M 2034 4750 
Q 2819 4750 3233 4129 
Q 3647 3509 3647 2328 
Q 3647 1150 3233 529 
Q 2819 -91 2034 -91 
Q 1250 -91 836 529 
Q 422 1150 422 2328 
Q 422 3509 836 4129 
Q 1250 4750 2034 4750 
z
" transform="scale(0.015625)"/>
        <path id="DejaVuSans-2e" d="M 684 794 
L 1344 794 
L 1344 0 
L 684 0 
L 684 794 
z
" transform="scale(0.015625)"/>
       </defs>
       <use xlink:href="#DejaVuSans-30"/>
       <use xlink:href="#DejaVuSans-2e" transform="translate(63.623047 0)"/>
       <use xlink:href="#DejaVuSans-30" transform="translate(95.410156 0)"/>
      </g>
     </g>
    </g>
    <g id="xtick_2">
     <g id="line2d_2">
      <g>
       <use xlink:href="#m4b24dfd430" x="132.420455" y="355" style="stroke: #000000; stroke-width: 0.8"/>
      </g>
     </g>
     <g id="text_2">
      <!-- 0.2 -->
      <g transform="translate(124.468892 369.598437) scale(0.1 -0.1)">
       <defs>
        <path id="DejaVuSans-32" d="M 1228 531 
L 3431 531 
L 3431 0 
L 469 0 
L 469 531 
Q 828 903 1448 1529 
Q 2069 2156 2228 2338 
Q 2531 2678 2651 2914 
Q 2772 3150 2772 3378 
Q 2772 3750 2511 3984 
Q 2250 4219 1831 4219 
Q 1534 4219 1204 4116 
Q 875 4013 500 3803 
L 500 4441 
Q 881 4594 1212 4672 
Q 1544 4750 1819 4750 
Q 2544 4750 2975 4387 
Q 3406 4025 3406 3419 
Q 3406 3131 3298 2873 
Q 3191 2616 2906 2266 
Q 2828 2175 2409 1742 
Q 1991 1309 1228 531 
z
" transform="scale(0.015625)"/>
       </defs>
       <use xlink:href="#DejaVuSans-30"/>
       <use xlink:href="#DejaVuSans-2e" transform="translate(63.623047 0)"/>
       <use xlink:href="#DejaVuSans-32" transform="translate(95.410156 0)"/>
      </g>
     </g>
    </g>
    <g id="xtick_3">
     <g id="line2d_3">
      <g>
       <use xlink:href="#m4b24dfd430" x="200.516818" y="355" style="stroke: #000000; stroke-width: 0.8"/>
      </g>
     </g>
     <g id="text_3">
      <!-- 0.4 -->
      <g transform="translate(192.565256 369.598437) scale(0.1 -0.1)">
       <defs>
        <path id="DejaVuSans-34" d="M 2419 4116 
L 825 1625 
L 2419 1625 
L 2419 4116 
z
M 2253 4666 
L 3047 4666 
L 3047 1625 
L 3713 1625 
L 3713 1100 
L 3047 1100 
L 3047 0 
L 2419 0 
L 2419 1100 
L 313 1100 
L 313 1709 
L 2253 4666 
z
" transform="scale(0.015625)"/>
       </defs>
       <use xlink:href="#DejaVuSans-30"/>
       <use xlink:href="#DejaVuSans-2e" transform="translate(63.623047 0)"/>
       <use xlink:href="#DejaVuSans-34" transform="translate(95.410156 0)"/>
      </g>
     </g>
    </g>
    <g id="xtick_4">
     <g id="line2d_4">
      <g>
       <use xlink:href="#m4b24dfd430" x="268.613182" y="355" style="stroke: #000000; stroke-width: 0.8"/>
      </g>
     </g>
     <g id="text_4">
      <!-- 0.6 -->
      <g transform="translate(260.661619 369.598437) scale(0.1 -0.1)">
       <defs>
        <path id="DejaVuSans-36" d="M 2113 2584 
Q 1688 2584 1439 2293 
Q 1191 2003 1191 1497 
Q 1191 994 1439 701 
Q 1688 409 2113 409 
Q 2538 409 2786 701 
Q 3034 994 3034 1497 
Q 3034 2003 2786 2293 
Q 2538 2584 2113 2584 
z
M 3366 4563 
L 3366 3988 
Q 3128 4100 2886 4159 
Q 2644 4219 2406 4219 
Q 1781 4219 1451 3797 
Q 1122 3375 1075 2522 
Q 1259 2794 1537 2939 
Q 1816 3084 2150 3084 
Q 2853 3084 3261 2657 
Q 3669 2231 3669 1497 
Q 3669 778 3244 343 
Q 2819 -91 2113 -91 
Q 1303 -91 875 529 
Q 447 1150 447 2328 
Q 447 3434 972 4092 
Q 1497 4750 2381 4750 
Q 2619 4750 2861 4703 
Q 3103 4656 3366 4563 
z
" transform="scale(0.015625)"/>
       </defs>
       <use xlink:href="#DejaVuSans-30"/>
       <use xlink:href="#DejaVuSans-2e" transform="translate(63.623047 0)"/>
       <use xlink:href="#DejaVuSans-36" transform="translate(95.410156 0)"/>
      </g>
     </g>
    </g>
    <g id="xtick_5">
     <g id="line2d_5">
      <g>
       <use xlink:href="#m4b24dfd430" x="336.709545" y="355" style="stroke: #000000; stroke-width: 0.8"/>
      </g>
     </g>
     <g id="text_5">
      <!-- 0.8 -->
      <g transform="translate(328.757983 369.598437) scale(0.1 -0.1)">
       <defs>
        <path id="DejaVuSans-38" d="M 2034 2216 
Q 1584 2216 1326 1975 
Q 1069 1734 1069 1313 
Q 1069 891 1326 650 
Q 1584 409 2034 409 
Q 2484 409 2743 651 
Q 3003 894 3003 1313 
Q 3003 1734 2745 1975 
Q 2488 2216 2034 2216 
z
M 1403 2484 
Q 997 2584 770 2862 
Q 544 3141 544 3541 
Q 544 4100 942 4425 
Q 1341 4750 2034 4750 
Q 2731 4750 3128 4425 
Q 3525 4100 3525 3541 
Q 3525 3141 3298 2862 
Q 3072 2584 2669 2484 
Q 3125 2378 3379 2068 
Q 3634 1759 3634 1313 
Q 3634 634 3220 271 
Q 2806 -91 2034 -91 
Q 1263 -91 848 271 
Q 434 634 434 1313 
Q 434 1759 690 2068 
Q 947 2378 1403 2484 
z
M 1172 3481 
Q 1172 3119 1398 2916 
Q 1625 2713 2034 2713 
Q 2441 2713 2670 2916 
Q 2900 3119 2900 3481 
Q 2900 3844 2670 4047 
Q 2441 4250 2034 4250 
Q 1625 4250 1398 4047 
Q 1172 3844 1172 3481 
z
" transform="scale(0.015625)"/>
       </defs>
       <use xlink:href="#DejaVuSans-30"/>
       <use xlink:href="#DejaVuSans-2e" transform="translate(63.623047 0)"/>
       <use xlink:href="#DejaVuSans-38" transform="translate(95.410156 0)"/>
      </g>
     </g>
    </g>
    <g id="xtick_6">
     <g id="line2d_6">
      <g>
       <use xlink:href="#m4b24dfd430" x="404.805909" y="355" style="stroke: #000000; stroke-width: 0.8"/>
      </g>
     </g>
     <g id="text_6">
      <!-- 1.0 -->
      <g transform="translate(396.854347 369.598437) scale(0.1 -0.1)">
       <defs>
        <path id="DejaVuSans-31" d="M 794 531 
L 1825 531 
L 1825 4091 
L 703 3866 
L 703 4441 
L 1819 4666 
L 2450 4666 
L 2450 531 
L 3481 531 
L 3481 0 
L 794 0 
L 794 531 
z
" transform="scale(0.015625)"/>
       </defs>
       <use xlink:href="#DejaVuSans-31"/>
       <use xlink:href="#DejaVuSans-2e" transform="translate(63.623047 0)"/>
       <use xlink:href="#DejaVuSans-30" transform="translate(95.410156 0)"/>
      </g>
     </g>
    </g>
    <g id="text_7">
     <!-- FPR -->
     <g transform="translate(225.200156 383.276562) scale(0.1 -0.1)">
      <defs>
       <path id="DejaVuSans-46" d="M 628 4666 
L 3309 4666 
L 3309 4134 
L 1259 4134 
L 1259 2759 
L 3109 2759 
L 3109 2228 
L 1259 2228 
L 1259 0 
L 628 0 
L 628 4666 
z
" transform="scale(0.015625)"/>
       <path id="DejaVuSans-50" d="M 1259 4147 
L 1259 2394 
L 2053 2394 
Q 2494 2394 2734 2622 
Q 2975 2850 2975 3272 
Q 2975 3691 2734 3919 
Q 2494 4147 2053 4147 
L 1259 4147 
z
M 628 4666 
L 2053 4666 
Q 2838 4666 3239 4311 
Q 3641 3956 3641 3272 
Q 3641 2581 3239 2228 
Q 2838 1875 2053 1875 
L 1259 1875 
L 1259 0 
L 628 0 
L 628 4666 
z
" transform="scale(0.015625)"/>
       <path id="DejaVuSans-52" d="M 2841 2188 
Q 3044 2119 3236 1894 
Q 3428 1669 3622 1275 
L 4263 0 
L 3584 0 
L 2988 1197 
Q 2756 1666 2539 1819 
Q 2322 1972 1947 1972 
L 1259 1972 
L 1259 0 
L 628 0 
L 628 4666 
L 2053 4666 
Q 2853 4666 3247 4331 
Q 3641 3997 3641 3322 
Q 3641 2881 3436 2590 
Q 3231 2300 2841 2188 
z
M 1259 4147 
L 1259 2491 
L 2053 2491 
Q 2509 2491 2742 2702 
Q 2975 2913 2975 3322 
Q 2975 3731 2742 3939 
Q 2509 4147 2053 4147 
L 1259 4147 
z
" transform="scale(0.015625)"/>
      </defs>
      <use xlink:href="#DejaVuSans-46"/>
      <use xlink:href="#DejaVuSans-50" transform="translate(57.519531 0)"/>
      <use xlink:href="#DejaVuSans-52" transform="translate(117.822266 0)"/>
     </g>
    </g>
   </g>
   <g id="matplotlib.axis_2">
    <g id="ytick_1">
     <g id="line2d_7">
      <defs>
       <path id="m04c792e025" d="M 0 0 
L -3.5 0 
" style="stroke: #000000; stroke-width: 0.8"/>
      </defs>
      <g>
       <use xlink:href="#m04c792e025" x="47.3" y="340.041818" style="stroke: #000000; stroke-width: 0.8"/>
      </g>
     </g>
     <g id="text_8">
      <!-- 0.0 -->
      <g transform="translate(24.396875 343.841037) scale(0.1 -0.1)">
       <use xlink:href="#DejaVuSans-30"/>
       <use xlink:href="#DejaVuSans-2e" transform="translate(63.623047 0)"/>
       <use xlink:href="#DejaVuSans-30" transform="translate(95.410156 0)"/>
      </g>
     </g>
    </g>
    <g id="ytick_2">
     <g id="line2d_8">
      <g>
       <use xlink:href="#m04c792e025" x="47.3" y="280.209091" style="stroke: #000000; stroke-width: 0.8"/>
      </g>
     </g>
     <g id="text_9">
      <!-- 0.2 -->
      <g transform="translate(24.396875 284.00831) scale(0.1 -0.1)">
       <use xlink:href="#DejaVuSans-30"/>
       <use xlink:href="#DejaVuSans-2e" transform="translate(63.623047 0)"/>
       <use xlink:href="#DejaVuSans-32" transform="translate(95.410156 0)"/>
      </g>
     </g>
    </g>
    <g id="ytick_3">
     <g id="line2d_9">
      <g>
       <use xlink:href="#m04c792e025" x="47.3" y="220.376364" style="stroke: #000000; stroke-width: 0.8"/>
      </g>
     </g>
     <g id="text_10">
      <!-- 0.4 -->
      <g transform="translate(24.396875 224.175582) scale(0.1 -0.1)">
       <use xlink:href="#DejaVuSans-30"/>
       <use xlink:href="#DejaVuSans-2e" transform="translate(63.623047 0)"/>
       <use xlink:href="#DejaVuSans-34" transform="translate(95.410156 0)"/>
      </g>
     </g>
    </g>
    <g id="ytick_4">
     <g id="line2d_10">
      <g>
       <use xlink:href="#m04c792e025" x="47.3" y="160.543636" style="stroke: #000000; stroke-width: 0.8"/>
      </g>
     </g>
     <g id="text_11">
      <!-- 0.6 -->
      <g transform="translate(24.396875 164.342855) scale(0.1 -0.1)">
       <use xlink:href="#DejaVuSans-30"/>
       <use xlink:href="#DejaVuSans-2e" transform="translate(63.623047 0)"/>
       <use xlink:href="#DejaVuSans-36" transform="translate(95.410156 0)"/>
      </g>
     </g>
    </g>
    <g id="ytick_5">
     <g id="line2d_11">
      <g>
       <use xlink:href="#m04c792e025" x="47.3" y="100.710909" style="stroke: #000000; stroke-width: 0.8"/>
      </g>
     </g>
     <g id="text_12">
      <!-- 0.8 -->
      <g transform="translate(24.396875 104.510128) scale(0.1 -0.1)">
       <use xlink:href="#DejaVuSans-30"/>
       <use xlink:href="#DejaVuSans-2e" transform="translate(63.623047 0)"/>
       <use xlink:href="#DejaVuSans-38" transform="translate(95.410156 0)"/>
      </g>
     </g>
    </g>
    <g id="ytick_6">
     <g id="line2d_12">
      <g>
       <use xlink:href="#m04c792e025" x="47.3" y="40.878182" style="stroke: #000000; stroke-width: 0.8"/>
      </g>
     </g>
     <g id="text_13">
      <!-- 1.0 -->
      <g transform="translate(24.396875 44.677401) scale(0.1 -0.1)">
       <use xlink:href="#DejaVuSans-31"/>
       <use xlink:href="#DejaVuSans-2e" transform="translate(63.623047 0)"/>
       <use xlink:href="#DejaVuSans-30" transform="translate(95.410156 0)"/>
      </g>
     </g>
    </g>
    <g id="text_14">
     <!-- TPR -->
     <g transform="translate(18.317188 200.002969) rotate(-90) scale(0.1 -0.1)">
      <defs>
       <path id="DejaVuSans-54" d="M -19 4666 
L 3928 4666 
L 3928 4134 
L 2272 4134 
L 2272 0 
L 1638 0 
L 1638 4134 
L -19 4134 
L -19 4666 
z
" transform="scale(0.015625)"/>
      </defs>
      <use xlink:href="#DejaVuSans-54"/>
      <use xlink:href="#DejaVuSans-50" transform="translate(61.083984 0)"/>
      <use xlink:href="#DejaVuSans-52" transform="translate(121.386719 0)"/>
     </g>
    </g>
   </g>
   <g id="line2d_13">
    <path d="M 64.324091 340.041818 
L 64.324091 293.411049 
L 64.664573 292.19986 
L 64.664573 277.362797 
L 65.005055 275.848811 
L 65.005055 263.131329 
L 65.345536 262.525734 
L 65.345536 253.744615 
L 65.686018 251.927832 
L 65.686018 230.429231 
L 66.0265 230.126434 
L 66.0265 228.612448 
L 66.366982 228.006853 
L 66.366982 223.464895 
L 66.707464 223.464895 
L 66.707464 214.380979 
L 67.388427 214.380979 
L 67.388427 210.444615 
L 67.728909 210.444615 
L 67.728909 207.719441 
L 68.069391 207.719441 
L 68.069391 205.59986 
L 68.409873 205.297063 
L 68.409873 191.065594 
L 68.750355 190.157203 
L 68.750355 187.734825 
L 69.090836 187.734825 
L 69.090836 187.129231 
L 69.431318 187.129231 
L 69.431318 186.826434 
L 70.452764 186.826434 
L 70.452764 183.495664 
L 71.133727 183.495664 
L 71.133727 183.192867 
L 71.474209 182.284476 
L 71.474209 178.650909 
L 71.814691 178.650909 
L 71.814691 177.136923 
L 72.155173 177.136923 
L 72.495655 176.531329 
L 72.836136 176.228531 
L 73.176618 176.228531 
L 73.176618 175.925734 
L 73.857582 175.622937 
L 73.857582 173.806154 
L 74.198064 173.200559 
L 74.198064 170.778182 
L 74.879027 170.778182 
L 74.879027 170.475385 
L 75.219509 170.475385 
L 75.219509 169.264196 
L 75.900473 169.264196 
L 75.900473 168.658601 
L 76.240955 168.658601 
L 76.240955 167.144615 
L 76.581436 166.841818 
L 76.921918 166.236224 
L 77.2624 165.933427 
L 77.2624 164.722238 
L 77.602882 164.419441 
L 77.602882 163.813846 
L 78.283845 163.813846 
L 78.624327 163.511049 
L 78.624327 162.29986 
L 79.305291 161.997063 
L 79.645773 161.997063 
L 79.645773 161.391469 
L 80.326736 161.088671 
L 80.326736 157.757902 
L 80.667218 157.455105 
L 80.667218 156.84951 
L 81.0077 156.84951 
L 81.348182 156.546713 
L 81.348182 154.427133 
L 81.688664 154.427133 
L 81.688664 154.124336 
L 82.029145 154.124336 
L 82.029145 153.518741 
L 82.369627 152.307552 
L 82.710109 152.307552 
L 82.710109 150.793566 
L 83.050591 150.490769 
L 83.050591 149.885175 
L 83.731555 149.885175 
L 83.731555 148.371189 
L 84.072036 148.068392 
L 84.072036 146.857203 
L 84.412518 146.554406 
L 84.412518 145.343217 
L 85.093482 145.343217 
L 85.093482 144.737622 
L 85.433964 144.434825 
L 85.433964 142.618042 
L 85.774445 142.618042 
L 85.774445 139.287273 
L 86.114927 139.287273 
L 86.114927 138.984476 
L 86.455409 138.984476 
L 86.455409 135.653706 
L 87.817336 135.653706 
L 87.817336 133.836923 
L 88.157818 133.836923 
L 88.838782 133.534126 
L 88.838782 130.808951 
L 89.179264 130.808951 
L 89.179264 127.478182 
L 89.519745 127.478182 
L 89.519745 127.175385 
L 89.860227 127.175385 
L 89.860227 126.56979 
L 90.200709 126.56979 
L 90.541191 126.266993 
L 90.541191 125.964196 
L 90.881673 125.964196 
L 90.881673 125.358601 
L 91.222155 125.358601 
L 91.222155 122.633427 
L 91.903118 122.633427 
L 91.903118 121.725035 
L 92.2436 121.725035 
L 92.2436 121.119441 
L 92.584082 121.119441 
L 92.584082 120.513846 
L 92.924564 120.211049 
L 93.265045 120.211049 
L 93.265045 118.394266 
L 93.605527 118.394266 
L 93.605527 118.091469 
L 93.946009 117.788671 
L 94.967455 117.788671 
L 94.967455 116.577483 
L 95.648418 116.274685 
L 95.648418 115.971888 
L 96.329382 115.971888 
L 96.329382 115.669091 
L 96.669864 115.366294 
L 97.350827 115.366294 
L 97.691309 115.063497 
L 99.393718 115.063497 
L 99.393718 114.155105 
L 99.7342 113.54951 
L 100.415164 113.54951 
L 100.415164 112.338322 
L 100.755645 112.035524 
L 101.096127 112.035524 
L 101.096127 111.732727 
L 101.777091 111.732727 
L 101.777091 111.127133 
L 102.117573 111.127133 
L 102.798536 110.521538 
L 103.819982 110.521538 
L 404.805909 40.878182 
L 404.805909 40.878182 
" clip-path="url(#pc5ef4dbf00)" style="fill: none; stroke: #002d62; stroke-width: 2; stroke-linecap: square"/>
   </g>
   <g id="line2d_14">
    <path d="M 64.324091 340.041818 
L 64.324091 168.658601 
L 64.664573 168.658601 
L 64.664573 150.490769 
L 65.005055 150.187972 
L 65.005055 145.343217 
L 65.345536 145.04042 
L 65.345536 141.104056 
L 65.686018 141.104056 
L 65.686018 133.534126 
L 66.0265 133.534126 
L 66.0265 131.717343 
L 66.707464 131.111748 
L 66.707464 130.808951 
L 67.047945 130.506154 
L 67.047945 130.203357 
L 67.388427 129.597762 
L 67.388427 128.992168 
L 67.728909 128.689371 
L 67.728909 122.936224 
L 404.805909 40.878182 
L 404.805909 40.878182 
" clip-path="url(#pc5ef4dbf00)" style="fill: none; stroke-dasharray: 7.4,3.2; stroke-dashoffset: 0; stroke: #d95319; stroke-width: 2"/>
   </g>
   <g id="line2d_15">
    <path d="M 64.324091 340.041818 
L 404.805909 40.878182 
" clip-path="url(#pc5ef4dbf00)" style="fill: none; stroke-dasharray: 1.85,0.8; stroke-dashoffset: 0; stroke: #000000; stroke-opacity: 0.3; stroke-width: 0.5"/>
   </g>
   <g id="patch_3">
    <path d="M 47.3 355 
L 47.3 25.92 
" style="fill: none; stroke: #000000; stroke-width: 0.8; stroke-linejoin: miter; stroke-linecap: square"/>
   </g>
   <g id="patch_4">
    <path d="M 47.3 355 
L 421.83 355 
" style="fill: none; stroke: #000000; stroke-width: 0.8; stroke-linejoin: miter; stroke-linecap: square"/>
   </g>
   <g id="text_15">
    <!-- ROC — STREME vs MEME classic -->
    <g transform="translate(137.073438 19.92) scale(0.12 -0.12)">
     <defs>
      <path id="DejaVuSans-4f" d="M 2522 4238 
Q 1834 4238 1429 3725 
Q 1025 3213 1025 2328 
Q 1025 1447 1429 934 
Q 1834 422 2522 422 
Q 3209 422 3611 934 
Q 4013 1447 4013 2328 
Q 4013 3213 3611 3725 
Q 3209 4238 2522 4238 
z
M 2522 4750 
Q 3503 4750 4090 4092 
Q 4678 3434 4678 2328 
Q 4678 1225 4090 567 
Q 3503 -91 2522 -91 
Q 1538 -91 948 565 
Q 359 1222 359 2328 
Q 359 3434 948 4092 
Q 1538 4750 2522 4750 
z
" transform="scale(0.015625)"/>
      <path id="DejaVuSans-43" d="M 4122 4306 
L 4122 3641 
Q 3803 3938 3442 4084 
Q 3081 4231 2675 4231 
Q 1875 4231 1450 3742 
Q 1025 3253 1025 2328 
Q 1025 1406 1450 917 
Q 1875 428 2675 428 
Q 3081 428 3442 575 
Q 3803 722 4122 1019 
L 4122 359 
Q 3791 134 3420 21 
Q 3050 -91 2638 -91 
Q 1578 -91 968 557 
Q 359 1206 359 2328 
Q 359 3453 968 4101 
Q 1578 4750 2638 4750 
Q 3056 4750 3426 4639 
Q 3797 4528 4122 4306 
z
" transform="scale(0.015625)"/>
      <path id="DejaVuSans-20" transform="scale(0.015625)"/>
      <path id="DejaVuSans-2014" d="M 313 1978 
L 6088 1978 
L 6088 1528 
L 313 1528 
L 313 1978 
z
" transform="scale(0.015625)"/>
      <path id="DejaVuSans-53" d="M 3425 4513 
L 3425 3897 
Q 3066 4069 2747 4153 
Q 2428 4238 2131 4238 
Q 1616 4238 1336 4038 
Q 1056 3838 1056 3469 
Q 1056 3159 1242 3001 
Q 1428 2844 1947 2747 
L 2328 2669 
Q 3034 2534 3370 2195 
Q 3706 1856 3706 1288 
Q 3706 609 3251 259 
Q 2797 -91 1919 -91 
Q 1588 -91 1214 -16 
Q 841 59 441 206 
L 441 856 
Q 825 641 1194 531 
Q 1563 422 1919 422 
Q 2459 422 2753 634 
Q 3047 847 3047 1241 
Q 3047 1584 2836 1778 
Q 2625 1972 2144 2069 
L 1759 2144 
Q 1053 2284 737 2584 
Q 422 2884 422 3419 
Q 422 4038 858 4394 
Q 1294 4750 2059 4750 
Q 2388 4750 2728 4690 
Q 3069 4631 3425 4513 
z
" transform="scale(0.015625)"/>
      <path id="DejaVuSans-45" d="M 628 4666 
L 3578 4666 
L 3578 4134 
L 1259 4134 
L 1259 2753 
L 3481 2753 
L 3481 2222 
L 1259 2222 
L 1259 531 
L 3634 531 
L 3634 0 
L 628 0 
L 628 4666 
z
" transform="scale(0.015625)"/>
      <path id="DejaVuSans-4d" d="M 628 4666 
L 1569 4666 
L 2759 1491 
L 3956 4666 
L 4897 4666 
L 4897 0 
L 4281 0 
L 4281 4097 
L 3078 897 
L 2444 897 
L 1241 4097 
L 1241 0 
L 628 0 
L 628 4666 
z
" transform="scale(0.015625)"/>
      <path id="DejaVuSans-76" d="M 191 3500 
L 800 3500 
L 1894 563 
L 2988 3500 
L 3597 3500 
L 2284 0 
L 1503 0 
L 191 3500 
z
" transform="scale(0.015625)"/>
      <path id="DejaVuSans-73" d="M 2834 3397 
L 2834 2853 
Q 2591 2978 2328 3040 
Q 2066 3103 1784 3103 
Q 1356 3103 1142 2972 
Q 928 2841 928 2578 
Q 928 2378 1081 2264 
Q 1234 2150 1697 2047 
L 1894 2003 
Q 2506 1872 2764 1633 
Q 3022 1394 3022 966 
Q 3022 478 2636 193 
Q 2250 -91 1575 -91 
Q 1294 -91 989 -36 
Q 684 19 347 128 
L 347 722 
Q 666 556 975 473 
Q 1284 391 1588 391 
Q 1994 391 2212 530 
Q 2431 669 2431 922 
Q 2431 1156 2273 1281 
Q 2116 1406 1581 1522 
L 1381 1569 
Q 847 1681 609 1914 
Q 372 2147 372 2553 
Q 372 3047 722 3315 
Q 1072 3584 1716 3584 
Q 2034 3584 2315 3537 
Q 2597 3491 2834 3397 
z
" transform="scale(0.015625)"/>
      <path id="DejaVuSans-63" d="M 3122 3366 
L 3122 2828 
Q 2878 2963 2633 3030 
Q 2388 3097 2138 3097 
Q 1578 3097 1268 2742 
Q 959 2388 959 1747 
Q 959 1106 1268 751 
Q 1578 397 2138 397 
Q 2388 397 2633 464 
Q 2878 531 3122 666 
L 3122 134 
Q 2881 22 2623 -34 
Q 2366 -91 2075 -91 
Q 1284 -91 818 406 
Q 353 903 353 1747 
Q 353 2603 823 3093 
Q 1294 3584 2113 3584 
Q 2378 3584 2631 3529 
Q 2884 3475 3122 3366 
z
" transform="scale(0.015625)"/>
      <path id="DejaVuSans-6c" d="M 603 4863 
L 1178 4863 
L 1178 0 
L 603 0 
L 603 4863 
z
" transform="scale(0.015625)"/>
      <path id="DejaVuSans-61" d="M 2194 1759 
Q 1497 1759 1228 1600 
Q 959 1441 959 1056 
Q 959 750 1161 570 
Q 1363 391 1709 391 
Q 2188 391 2477 730 
Q 2766 1069 2766 1631 
L 2766 1759 
L 2194 1759 
z
M 3341 1997 
L 3341 0 
L 2766 0 
L 2766 531 
Q 2569 213 2275 61 
Q 1981 -91 1556 -91 
Q 1019 -91 701 211 
Q 384 513 384 1019 
Q 384 1609 779 1909 
Q 1175 2209 1959 2209 
L 2766 2209 
L 2766 2266 
Q 2766 2663 2505 2880 
Q 2244 3097 1772 3097 
Q 1472 3097 1187 3025 
Q 903 2953 641 2809 
L 641 3341 
Q 956 3463 1253 3523 
Q 1550 3584 1831 3584 
Q 2591 3584 2966 3190 
Q 3341 2797 3341 1997 
z
" transform="scale(0.015625)"/>
      <path id="DejaVuSans-69" d="M 603 3500 
L 1178 3500 
L 1178 0 
L 603 0 
L 603 3500 
z
M 603 4863 
L 1178 4863 
L 1178 4134 
L 603 4134 
L 603 4863 
z
" transform="scale(0.015625)"/>
     </defs>
     <use xlink:href="#DejaVuSans-52"/>
     <use xlink:href="#DejaVuSans-4f" transform="translate(69.482422 0)"/>
     <use xlink:href="#DejaVuSans-43" transform="translate(148.193359 0)"/>
     <use xlink:href="#DejaVuSans-20" transform="translate(218.017578 0)"/>
     <use xlink:href="#DejaVuSans-2014" transform="translate(249.804688 0)"/>
     <use xlink:href="#DejaVuSans-20" transform="translate(349.804688 0)"/>
     <use xlink:href="#DejaVuSans-53" transform="translate(381.591797 0)"/>
     <use xlink:href="#DejaVuSans-54" transform="translate(445.068359 0)"/>
     <use xlink:href="#DejaVuSans-52" transform="translate(506.152344 0)"/>
     <use xlink:href="#DejaVuSans-45" transform="translate(575.634766 0)"/>
     <use xlink:href="#DejaVuSans-4d" transform="translate(638.818359 0)"/>
     <use xlink:href="#DejaVuSans-45" transform="translate(725.097656 0)"/>
     <use xlink:href="#DejaVuSans-20" transform="translate(788.28125 0)"/>
     <use xlink:href="#DejaVuSans-76" transform="translate(820.068359 0)"/>
     <use xlink:href="#DejaVuSans-73" transform="translate(879.248047 0)"/>
     <use xlink:href="#DejaVuSans-20" transform="translate(931.347656 0)"/>
     <use xlink:href="#DejaVuSans-4d" transform="translate(963.134766 0)"/>
     <use xlink:href="#DejaVuSans-45" transform="translate(1049.414062 0)"/>
     <use xlink:href="#DejaVuSans-4d" transform="translate(1112.597656 0)"/>
     <use xlink:href="#DejaVuSans-45" transform="translate(1198.876953 0)"/>
     <use xlink:href="#DejaVuSans-20" transform="translate(1262.060547 0)"/>
     <use xlink:href="#DejaVuSans-63" transform="translate(1293.847656 0)"/>
     <use xlink:href="#DejaVuSans-6c" transform="translate(1348.828125 0)"/>
     <use xlink:href="#DejaVuSans-61" transform="translate(1376.611328 0)"/>
     <use xlink:href="#DejaVuSans-73" transform="translate(1437.890625 0)"/>
     <use xlink:href="#DejaVuSans-73" transform="translate(1489.990234 0)"/>
     <use xlink:href="#DejaVuSans-69" transform="translate(1542.089844 0)"/>
     <use xlink:href="#DejaVuSans-63" transform="translate(1569.873047 0)"/>
    </g>
   </g>
   <g id="legend_1">
    <g id="patch_5">
     <path d="M 52.9 55.805 
L 186.7425 55.805 
Q 188.3425 55.805 188.3425 54.205 
L 188.3425 31.52 
Q 188.3425 29.92 186.7425 29.92 
L 52.9 29.92 
Q 51.3 29.92 51.3 31.52 
L 51.3 54.205 
Q 51.3 55.805 52.9 55.805 
z
" style="fill: #ffffff; opacity: 0.8; stroke: #cccccc; stroke-linejoin: miter"/>
    </g>
    <g id="line2d_16">
     <path d="M 54.5 36.39875 
L 62.5 36.39875 
L 70.5 36.39875 
" style="fill: none; stroke: #002d62; stroke-width: 2; stroke-linecap: square"/>
    </g>
    <g id="text_16">
     <!-- STREME (AUC=0.854) -->
     <g transform="translate(76.9 39.19875) scale(0.08 -0.08)">
      <defs>
       <path id="DejaVuSans-28" d="M 1984 4856 
Q 1566 4138 1362 3434 
Q 1159 2731 1159 2009 
Q 1159 1288 1364 580 
Q 1569 -128 1984 -844 
L 1484 -844 
Q 1016 -109 783 600 
Q 550 1309 550 2009 
Q 550 2706 781 3412 
Q 1013 4119 1484 4856 
L 1984 4856 
z
" transform="scale(0.015625)"/>
       <path id="DejaVuSans-41" d="M 2188 4044 
L 1331 1722 
L 3047 1722 
L 2188 4044 
z
M 1831 4666 
L 2547 4666 
L 4325 0 
L 3669 0 
L 3244 1197 
L 1141 1197 
L 716 0 
L 50 0 
L 1831 4666 
z
" transform="scale(0.015625)"/>
       <path id="DejaVuSans-55" d="M 556 4666 
L 1191 4666 
L 1191 1831 
Q 1191 1081 1462 751 
Q 1734 422 2344 422 
Q 2950 422 3222 751 
Q 3494 1081 3494 1831 
L 3494 4666 
L 4128 4666 
L 4128 1753 
Q 4128 841 3676 375 
Q 3225 -91 2344 -91 
Q 1459 -91 1007 375 
Q 556 841 556 1753 
L 556 4666 
z
" transform="scale(0.015625)"/>
       <path id="DejaVuSans-3d" d="M 678 2906 
L 4684 2906 
L 4684 2381 
L 678 2381 
L 678 2906 
z
M 678 1631 
L 4684 1631 
L 4684 1100 
L 678 1100 
L 678 1631 
z
" transform="scale(0.015625)"/>
       <path id="DejaVuSans-35" d="M 691 4666 
L 3169 4666 
L 3169 4134 
L 1269 4134 
L 1269 2991 
Q 1406 3038 1543 3061 
Q 1681 3084 1819 3084 
Q 2600 3084 3056 2656 
Q 3513 2228 3513 1497 
Q 3513 744 3044 326 
Q 2575 -91 1722 -91 
Q 1428 -91 1123 -41 
Q 819 9 494 109 
L 494 744 
Q 775 591 1075 516 
Q 1375 441 1709 441 
Q 2250 441 2565 725 
Q 2881 1009 2881 1497 
Q 2881 1984 2565 2268 
Q 2250 2553 1709 2553 
Q 1456 2553 1204 2497 
Q 953 2441 691 2322 
L 691 4666 
z
" transform="scale(0.015625)"/>
       <path id="DejaVuSans-29" d="M 513 4856 
L 1013 4856 
Q 1481 4119 1714 3412 
Q 1947 2706 1947 2009 
Q 1947 1309 1714 600 
Q 1481 -109 1013 -844 
L 513 -844 
Q 928 -128 1133 580 
Q 1338 1288 1338 2009 
Q 1338 2731 1133 3434 
Q 928 4138 513 4856 
z
" transform="scale(0.015625)"/>
      </defs>
      <use xlink:href="#DejaVuSans-53"/>
      <use xlink:href="#DejaVuSans-54" transform="translate(63.476562 0)"/>
      <use xlink:href="#DejaVuSans-52" transform="translate(124.560547 0)"/>
      <use xlink:href="#DejaVuSans-45" transform="translate(194.042969 0)"/>
      <use xlink:href="#DejaVuSans-4d" transform="translate(257.226562 0)"/>
      <use xlink:href="#DejaVuSans-45" transform="translate(343.505859 0)"/>
      <use xlink:href="#DejaVuSans-20" transform="translate(406.689453 0)"/>
      <use xlink:href="#DejaVuSans-28" transform="translate(438.476562 0)"/>
      <use xlink:href="#DejaVuSans-41" transform="translate(477.490234 0)"/>
      <use xlink:href="#DejaVuSans-55" transform="translate(545.898438 0)"/>
      <use xlink:href="#DejaVuSans-43" transform="translate(619.091797 0)"/>
      <use xlink:href="#DejaVuSans-3d" transform="translate(688.916016 0)"/>
      <use xlink:href="#DejaVuSans-30" transform="translate(772.705078 0)"/>
      <use xlink:href="#DejaVuSans-2e" transform="translate(836.328125 0)"/>
      <use xlink:href="#DejaVuSans-38" transform="translate(868.115234 0)"/>
      <use xlink:href="#DejaVuSans-35" transform="translate(931.738281 0)"/>
      <use xlink:href="#DejaVuSans-34" transform="translate(995.361328 0)"/>
      <use xlink:href="#DejaVuSans-29" transform="translate(1058.984375 0)"/>
     </g>
    </g>
    <g id="line2d_17">
     <path d="M 54.5 48.14125 
L 62.5 48.14125 
L 70.5 48.14125 
" style="fill: none; stroke-dasharray: 7.4,3.2; stroke-dashoffset: 0; stroke: #d95319; stroke-width: 2"/>
    </g>
    <g id="text_17">
     <!-- MEME classic (AUC=0.861) -->
     <g transform="translate(76.9 50.94125) scale(0.08 -0.08)">
      <use xlink:href="#DejaVuSans-4d"/>
      <use xlink:href="#DejaVuSans-45" transform="translate(86.279297 0)"/>
      <use xlink:href="#DejaVuSans-4d" transform="translate(149.462891 0)"/>
      <use xlink:href="#DejaVuSans-45" transform="translate(235.742188 0)"/>
      <use xlink:href="#DejaVuSans-20" transform="translate(298.925781 0)"/>
      <use xlink:href="#DejaVuSans-63" transform="translate(330.712891 0)"/>
      <use xlink:href="#DejaVuSans-6c" transform="translate(385.693359 0)"/>
      <use xlink:href="#DejaVuSans-61" transform="translate(413.476562 0)"/>
      <use xlink:href="#DejaVuSans-73" transform="translate(474.755859 0)"/>
      <use xlink:href="#DejaVuSans-73" transform="translate(526.855469 0)"/>
      <use xlink:href="#DejaVuSans-69" transform="translate(578.955078 0)"/>
      <use xlink:href="#DejaVuSans-63" transform="translate(606.738281 0)"/>
      <use xlink:href="#DejaVuSans-20" transform="translate(661.71875 0)"/>
      <use xlink:href="#DejaVuSans-28" transform="translate(693.505859 0)"/>
      <use xlink:href="#DejaVuSans-41" transform="translate(732.519531 0)"/>
      <use xlink:href="#DejaVuSans-55" transform="translate(800.927734 0)"/>
      <use xlink:href="#DejaVuSans-43" transform="translate(874.121094 0)"/>
      <use xlink:href="#DejaVuSans-3d" transform="translate(943.945312 0)"/>
      <use xlink:href="#DejaVuSans-30" transform="translate(1027.734375 0)"/>
      <use xlink:href="#DejaVuSans-2e" transform="translate(1091.357422 0)"/>
      <use xlink:href="#DejaVuSans-38" transform="translate(1123.144531 0)"/>
      <use xlink:href="#DejaVuSans-36" transform="translate(1186.767578 0)"/>
      <use xlink:href="#DejaVuSans-31" transform="translate(1250.390625 0)"/>
      <use xlink:href="#DejaVuSans-29" transform="translate(1314.013672 0)"/>
     </g>
    </g>
   </g>
  </g>
  <g id="axes_2">
   <g id="patch_6">
    <path d="M 478.67 355 
L 853.2 355 
L 853.2 25.92 
L 478.67 25.92 
z
" style="fill: #ffffff"/>
   </g>
   <g id="patch_7">
    <path d="M 495.694091 355 
L 501.752336 355 
L 501.752336 282.187686 
L 495.694091 282.187686 
z
" clip-path="url(#p9328a8d642)" style="fill: #002d62; opacity: 0.5"/>
   </g>
   <g id="patch_8">
    <path d="M 501.752336 355 
L 507.810581 355 
L 507.810581 355 
L 501.752336 355 
z
" clip-path="url(#p9328a8d642)" style="fill: #002d62; opacity: 0.5"/>
   </g>
   <g id="patch_9">
    <path d="M 507.810581 355 
L 513.868826 355 
L 513.868826 355 
L 507.810581 355 
z
" clip-path="url(#p9328a8d642)" style="fill: #002d62; opacity: 0.5"/>
   </g>
   <g id="patch_10">
    <path d="M 513.868826 355 
L 519.92707 355 
L 519.92707 355 
L 513.868826 355 
z
" clip-path="url(#p9328a8d642)" style="fill: #002d62; opacity: 0.5"/>
   </g>
   <g id="patch_11">
    <path d="M 519.92707 355 
L 525.985315 355 
L 525.985315 355 
L 519.92707 355 
z
" clip-path="url(#p9328a8d642)" style="fill: #002d62; opacity: 0.5"/>
   </g>
   <g id="patch_12">
    <path d="M 525.985315 355 
L 532.04356 355 
L 532.04356 355 
L 525.985315 355 
z
" clip-path="url(#p9328a8d642)" style="fill: #002d62; opacity: 0.5"/>
   </g>
   <g id="patch_13">
    <path d="M 532.04356 355 
L 538.101805 355 
L 538.101805 355 
L 532.04356 355 
z
" clip-path="url(#p9328a8d642)" style="fill: #002d62; opacity: 0.5"/>
   </g>
   <g id="patch_14">
    <path d="M 538.101805 355 
L 544.16005 355 
L 544.16005 355 
L 538.101805 355 
z
" clip-path="url(#p9328a8d642)" style="fill: #002d62; opacity: 0.5"/>
   </g>
   <g id="patch_15">
    <path d="M 544.16005 355 
L 550.218295 355 
L 550.218295 355 
L 544.16005 355 
z
" clip-path="url(#p9328a8d642)" style="fill: #002d62; opacity: 0.5"/>
   </g>
   <g id="patch_16">
    <path d="M 550.218295 355 
L 556.27654 355 
L 556.27654 355 
L 550.218295 355 
z
" clip-path="url(#p9328a8d642)" style="fill: #002d62; opacity: 0.5"/>
   </g>
   <g id="patch_17">
    <path d="M 556.27654 355 
L 562.334785 355 
L 562.334785 355 
L 556.27654 355 
z
" clip-path="url(#p9328a8d642)" style="fill: #002d62; opacity: 0.5"/>
   </g>
   <g id="patch_18">
    <path d="M 562.334785 355 
L 568.393029 355 
L 568.393029 355 
L 562.334785 355 
z
" clip-path="url(#p9328a8d642)" style="fill: #002d62; opacity: 0.5"/>
   </g>
   <g id="patch_19">
    <path d="M 568.393029 355 
L 574.451274 355 
L 574.451274 355 
L 568.393029 355 
z
" clip-path="url(#p9328a8d642)" style="fill: #002d62; opacity: 0.5"/>
   </g>
   <g id="patch_20">
    <path d="M 574.451274 355 
L 580.509519 355 
L 580.509519 355 
L 574.451274 355 
z
" clip-path="url(#p9328a8d642)" style="fill: #002d62; opacity: 0.5"/>
   </g>
   <g id="patch_21">
    <path d="M 580.509519 355 
L 586.567764 355 
L 586.567764 355 
L 580.509519 355 
z
" clip-path="url(#p9328a8d642)" style="fill: #002d62; opacity: 0.5"/>
   </g>
   <g id="patch_22">
    <path d="M 586.567764 355 
L 592.626009 355 
L 592.626009 355 
L 586.567764 355 
z
" clip-path="url(#p9328a8d642)" style="fill: #002d62; opacity: 0.5"/>
   </g>
   <g id="patch_23">
    <path d="M 592.626009 355 
L 598.684254 355 
L 598.684254 355 
L 592.626009 355 
z
" clip-path="url(#p9328a8d642)" style="fill: #002d62; opacity: 0.5"/>
   </g>
   <g id="patch_24">
    <path d="M 598.684254 355 
L 604.742499 355 
L 604.742499 355 
L 598.684254 355 
z
" clip-path="url(#p9328a8d642)" style="fill: #002d62; opacity: 0.5"/>
   </g>
   <g id="patch_25">
    <path d="M 604.742499 355 
L 610.800744 355 
L 610.800744 355 
L 604.742499 355 
z
" clip-path="url(#p9328a8d642)" style="fill: #002d62; opacity: 0.5"/>
   </g>
   <g id="patch_26">
    <path d="M 610.800744 355 
L 616.858989 355 
L 616.858989 355 
L 610.800744 355 
z
" clip-path="url(#p9328a8d642)" style="fill: #002d62; opacity: 0.5"/>
   </g>
   <g id="patch_27">
    <path d="M 616.858989 355 
L 622.917233 355 
L 622.917233 355 
L 616.858989 355 
z
" clip-path="url(#p9328a8d642)" style="fill: #002d62; opacity: 0.5"/>
   </g>
   <g id="patch_28">
    <path d="M 622.917233 355 
L 628.975478 355 
L 628.975478 355 
L 622.917233 355 
z
" clip-path="url(#p9328a8d642)" style="fill: #002d62; opacity: 0.5"/>
   </g>
   <g id="patch_29">
    <path d="M 628.975478 355 
L 635.033723 355 
L 635.033723 350.567946 
L 628.975478 350.567946 
z
" clip-path="url(#p9328a8d642)" style="fill: #002d62; opacity: 0.5"/>
   </g>
   <g id="patch_30">
    <path d="M 635.033723 355 
L 641.091968 355 
L 641.091968 335.688908 
L 635.033723 335.688908 
z
" clip-path="url(#p9328a8d642)" style="fill: #002d62; opacity: 0.5"/>
   </g>
   <g id="patch_31">
    <path d="M 641.091968 355 
L 647.150213 355 
L 647.150213 338.854661 
L 641.091968 338.854661 
z
" clip-path="url(#p9328a8d642)" style="fill: #002d62; opacity: 0.5"/>
   </g>
   <g id="patch_32">
    <path d="M 647.150213 355 
L 653.208458 355 
L 653.208458 339.487811 
L 647.150213 339.487811 
z
" clip-path="url(#p9328a8d642)" style="fill: #002d62; opacity: 0.5"/>
   </g>
   <g id="patch_33">
    <path d="M 653.208458 355 
L 659.266703 355 
L 659.266703 339.171236 
L 653.208458 339.171236 
z
" clip-path="url(#p9328a8d642)" style="fill: #002d62; opacity: 0.5"/>
   </g>
   <g id="patch_34">
    <path d="M 659.266703 355 
L 665.324948 355 
L 665.324948 343.60329 
L 659.266703 343.60329 
z
" clip-path="url(#p9328a8d642)" style="fill: #002d62; opacity: 0.5"/>
   </g>
   <g id="patch_35">
    <path d="M 665.324948 355 
L 671.383192 355 
L 671.383192 337.904935 
L 665.324948 337.904935 
z
" clip-path="url(#p9328a8d642)" style="fill: #002d62; opacity: 0.5"/>
   </g>
   <g id="patch_36">
    <path d="M 671.383192 355 
L 677.441437 355 
L 677.441437 335.688908 
L 671.383192 335.688908 
z
" clip-path="url(#p9328a8d642)" style="fill: #002d62; opacity: 0.5"/>
   </g>
   <g id="patch_37">
    <path d="M 677.441437 355 
L 683.499682 355 
L 683.499682 338.538086 
L 677.441437 338.538086 
z
" clip-path="url(#p9328a8d642)" style="fill: #002d62; opacity: 0.5"/>
   </g>
   <g id="patch_38">
    <path d="M 683.499682 355 
L 689.557927 355 
L 689.557927 343.919865 
L 683.499682 343.919865 
z
" clip-path="url(#p9328a8d642)" style="fill: #002d62; opacity: 0.5"/>
   </g>
   <g id="patch_39">
    <path d="M 689.557927 355 
L 695.616172 355 
L 695.616172 336.955209 
L 689.557927 336.955209 
z
" clip-path="url(#p9328a8d642)" style="fill: #002d62; opacity: 0.5"/>
   </g>
   <g id="patch_40">
    <path d="M 695.616172 355 
L 701.674417 355 
L 701.674417 342.020414 
L 695.616172 342.020414 
z
" clip-path="url(#p9328a8d642)" style="fill: #002d62; opacity: 0.5"/>
   </g>
   <g id="patch_41">
    <path d="M 701.674417 355 
L 707.732662 355 
L 707.732662 339.171236 
L 701.674417 339.171236 
z
" clip-path="url(#p9328a8d642)" style="fill: #002d62; opacity: 0.5"/>
   </g>
   <g id="patch_42">
    <path d="M 707.732662 355 
L 713.790907 355 
L 713.790907 346.135892 
L 707.732662 346.135892 
z
" clip-path="url(#p9328a8d642)" style="fill: #002d62; opacity: 0.5"/>
   </g>
   <g id="patch_43">
    <path d="M 713.790907 355 
L 719.849152 355 
L 719.849152 349.301645 
L 713.790907 349.301645 
z
" clip-path="url(#p9328a8d642)" style="fill: #002d62; opacity: 0.5"/>
   </g>
   <g id="patch_44">
    <path d="M 719.849152 355 
L 725.907396 355 
L 725.907396 348.351919 
L 719.849152 348.351919 
z
" clip-path="url(#p9328a8d642)" style="fill: #002d62; opacity: 0.5"/>
   </g>
   <g id="patch_45">
    <path d="M 725.907396 355 
L 731.965641 355 
L 731.965641 349.61822 
L 725.907396 349.61822 
z
" clip-path="url(#p9328a8d642)" style="fill: #002d62; opacity: 0.5"/>
   </g>
   <g id="patch_46">
    <path d="M 731.965641 355 
L 738.023886 355 
L 738.023886 351.517672 
L 731.965641 351.517672 
z
" clip-path="url(#p9328a8d642)" style="fill: #002d62; opacity: 0.5"/>
   </g>
   <g id="patch_47">
    <path d="M 738.023886 355 
L 744.082131 355 
L 744.082131 352.150823 
L 738.023886 352.150823 
z
" clip-path="url(#p9328a8d642)" style="fill: #002d62; opacity: 0.5"/>
   </g>
   <g id="patch_48">
    <path d="M 744.082131 355 
L 750.140376 355 
L 750.140376 350.884521 
L 744.082131 350.884521 
z
" clip-path="url(#p9328a8d642)" style="fill: #002d62; opacity: 0.5"/>
   </g>
   <g id="patch_49">
    <path d="M 750.140376 355 
L 756.198621 355 
L 756.198621 352.783973 
L 750.140376 352.783973 
z
" clip-path="url(#p9328a8d642)" style="fill: #002d62; opacity: 0.5"/>
   </g>
   <g id="patch_50">
    <path d="M 756.198621 355 
L 762.256866 355 
L 762.256866 353.100548 
L 756.198621 353.100548 
z
" clip-path="url(#p9328a8d642)" style="fill: #002d62; opacity: 0.5"/>
   </g>
   <g id="patch_51">
    <path d="M 762.256866 355 
L 768.315111 355 
L 768.315111 353.733699 
L 762.256866 353.733699 
z
" clip-path="url(#p9328a8d642)" style="fill: #002d62; opacity: 0.5"/>
   </g>
   <g id="patch_52">
    <path d="M 768.315111 355 
L 774.373355 355 
L 774.373355 353.100548 
L 768.315111 353.100548 
z
" clip-path="url(#p9328a8d642)" style="fill: #002d62; opacity: 0.5"/>
   </g>
   <g id="patch_53">
    <path d="M 774.373355 355 
L 780.4316 355 
L 780.4316 354.366849 
L 774.373355 354.366849 
z
" clip-path="url(#p9328a8d642)" style="fill: #002d62; opacity: 0.5"/>
   </g>
   <g id="patch_54">
    <path d="M 780.4316 355 
L 786.489845 355 
L 786.489845 355 
L 780.4316 355 
z
" clip-path="url(#p9328a8d642)" style="fill: #002d62; opacity: 0.5"/>
   </g>
   <g id="patch_55">
    <path d="M 786.489845 355 
L 792.54809 355 
L 792.54809 354.366849 
L 786.489845 354.366849 
z
" clip-path="url(#p9328a8d642)" style="fill: #002d62; opacity: 0.5"/>
   </g>
   <g id="patch_56">
    <path d="M 792.54809 355 
L 798.606335 355 
L 798.606335 354.050274 
L 792.54809 354.050274 
z
" clip-path="url(#p9328a8d642)" style="fill: #002d62; opacity: 0.5"/>
   </g>
   <g id="patch_57">
    <path d="M 495.694091 355 
L 502.503727 355 
L 502.503727 269.2081 
L 495.694091 269.2081 
z
" clip-path="url(#p9328a8d642)" style="fill: #d95319; opacity: 0.5"/>
   </g>
   <g id="patch_58">
    <path d="M 502.503727 355 
L 509.313364 355 
L 509.313364 355 
L 502.503727 355 
z
" clip-path="url(#p9328a8d642)" style="fill: #d95319; opacity: 0.5"/>
   </g>
   <g id="patch_59">
    <path d="M 509.313364 355 
L 516.123 355 
L 516.123 355 
L 509.313364 355 
z
" clip-path="url(#p9328a8d642)" style="fill: #d95319; opacity: 0.5"/>
   </g>
   <g id="patch_60">
    <path d="M 516.123 355 
L 522.932636 355 
L 522.932636 355 
L 516.123 355 
z
" clip-path="url(#p9328a8d642)" style="fill: #d95319; opacity: 0.5"/>
   </g>
   <g id="patch_61">
    <path d="M 522.932636 355 
L 529.742273 355 
L 529.742273 355 
L 522.932636 355 
z
" clip-path="url(#p9328a8d642)" style="fill: #d95319; opacity: 0.5"/>
   </g>
   <g id="patch_62">
    <path d="M 529.742273 355 
L 536.551909 355 
L 536.551909 355 
L 529.742273 355 
z
" clip-path="url(#p9328a8d642)" style="fill: #d95319; opacity: 0.5"/>
   </g>
   <g id="patch_63">
    <path d="M 536.551909 355 
L 543.361545 355 
L 543.361545 355 
L 536.551909 355 
z
" clip-path="url(#p9328a8d642)" style="fill: #d95319; opacity: 0.5"/>
   </g>
   <g id="patch_64">
    <path d="M 543.361545 355 
L 550.171182 355 
L 550.171182 355 
L 543.361545 355 
z
" clip-path="url(#p9328a8d642)" style="fill: #d95319; opacity: 0.5"/>
   </g>
   <g id="patch_65">
    <path d="M 550.171182 355 
L 556.980818 355 
L 556.980818 355 
L 550.171182 355 
z
" clip-path="url(#p9328a8d642)" style="fill: #d95319; opacity: 0.5"/>
   </g>
   <g id="patch_66">
    <path d="M 556.980818 355 
L 563.790455 355 
L 563.790455 355 
L 556.980818 355 
z
" clip-path="url(#p9328a8d642)" style="fill: #d95319; opacity: 0.5"/>
   </g>
   <g id="patch_67">
    <path d="M 563.790455 355 
L 570.600091 355 
L 570.600091 355 
L 563.790455 355 
z
" clip-path="url(#p9328a8d642)" style="fill: #d95319; opacity: 0.5"/>
   </g>
   <g id="patch_68">
    <path d="M 570.600091 355 
L 577.409727 355 
L 577.409727 355 
L 570.600091 355 
z
" clip-path="url(#p9328a8d642)" style="fill: #d95319; opacity: 0.5"/>
   </g>
   <g id="patch_69">
    <path d="M 577.409727 355 
L 584.219364 355 
L 584.219364 355 
L 577.409727 355 
z
" clip-path="url(#p9328a8d642)" style="fill: #d95319; opacity: 0.5"/>
   </g>
   <g id="patch_70">
    <path d="M 584.219364 355 
L 591.029 355 
L 591.029 355 
L 584.219364 355 
z
" clip-path="url(#p9328a8d642)" style="fill: #d95319; opacity: 0.5"/>
   </g>
   <g id="patch_71">
    <path d="M 591.029 355 
L 597.838636 355 
L 597.838636 355 
L 591.029 355 
z
" clip-path="url(#p9328a8d642)" style="fill: #d95319; opacity: 0.5"/>
   </g>
   <g id="patch_72">
    <path d="M 597.838636 355 
L 604.648273 355 
L 604.648273 355 
L 597.838636 355 
z
" clip-path="url(#p9328a8d642)" style="fill: #d95319; opacity: 0.5"/>
   </g>
   <g id="patch_73">
    <path d="M 604.648273 355 
L 611.457909 355 
L 611.457909 355 
L 604.648273 355 
z
" clip-path="url(#p9328a8d642)" style="fill: #d95319; opacity: 0.5"/>
   </g>
   <g id="patch_74">
    <path d="M 611.457909 355 
L 618.267545 355 
L 618.267545 355 
L 611.457909 355 
z
" clip-path="url(#p9328a8d642)" style="fill: #d95319; opacity: 0.5"/>
   </g>
   <g id="patch_75">
    <path d="M 618.267545 355 
L 625.077182 355 
L 625.077182 355 
L 618.267545 355 
z
" clip-path="url(#p9328a8d642)" style="fill: #d95319; opacity: 0.5"/>
   </g>
   <g id="patch_76">
    <path d="M 625.077182 355 
L 631.886818 355 
L 631.886818 355 
L 625.077182 355 
z
" clip-path="url(#p9328a8d642)" style="fill: #d95319; opacity: 0.5"/>
   </g>
   <g id="patch_77">
    <path d="M 631.886818 355 
L 638.696455 355 
L 638.696455 338.854661 
L 631.886818 338.854661 
z
" clip-path="url(#p9328a8d642)" style="fill: #d95319; opacity: 0.5"/>
   </g>
   <g id="patch_78">
    <path d="M 638.696455 355 
L 645.506091 355 
L 645.506091 336.638634 
L 638.696455 336.638634 
z
" clip-path="url(#p9328a8d642)" style="fill: #d95319; opacity: 0.5"/>
   </g>
   <g id="patch_79">
    <path d="M 645.506091 355 
L 652.315727 355 
L 652.315727 340.120962 
L 645.506091 340.120962 
z
" clip-path="url(#p9328a8d642)" style="fill: #d95319; opacity: 0.5"/>
   </g>
   <g id="patch_80">
    <path d="M 652.315727 355 
L 659.125364 355 
L 659.125364 338.854661 
L 652.315727 338.854661 
z
" clip-path="url(#p9328a8d642)" style="fill: #d95319; opacity: 0.5"/>
   </g>
   <g id="patch_81">
    <path d="M 659.125364 355 
L 665.935 355 
L 665.935 337.904935 
L 659.125364 337.904935 
z
" clip-path="url(#p9328a8d642)" style="fill: #d95319; opacity: 0.5"/>
   </g>
   <g id="patch_82">
    <path d="M 665.935 355 
L 672.744636 355 
L 672.744636 339.171236 
L 665.935 339.171236 
z
" clip-path="url(#p9328a8d642)" style="fill: #d95319; opacity: 0.5"/>
   </g>
   <g id="patch_83">
    <path d="M 672.744636 355 
L 679.554273 355 
L 679.554273 340.754113 
L 672.744636 340.754113 
z
" clip-path="url(#p9328a8d642)" style="fill: #d95319; opacity: 0.5"/>
   </g>
   <g id="patch_84">
    <path d="M 679.554273 355 
L 686.363909 355 
L 686.363909 339.804387 
L 679.554273 339.804387 
z
" clip-path="url(#p9328a8d642)" style="fill: #d95319; opacity: 0.5"/>
   </g>
   <g id="patch_85">
    <path d="M 686.363909 355 
L 693.173545 355 
L 693.173545 339.487811 
L 686.363909 339.487811 
z
" clip-path="url(#p9328a8d642)" style="fill: #d95319; opacity: 0.5"/>
   </g>
   <g id="patch_86">
    <path d="M 693.173545 355 
L 699.983182 355 
L 699.983182 341.703838 
L 693.173545 341.703838 
z
" clip-path="url(#p9328a8d642)" style="fill: #d95319; opacity: 0.5"/>
   </g>
   <g id="patch_87">
    <path d="M 699.983182 355 
L 706.792818 355 
L 706.792818 342.336989 
L 699.983182 342.336989 
z
" clip-path="url(#p9328a8d642)" style="fill: #d95319; opacity: 0.5"/>
   </g>
   <g id="patch_88">
    <path d="M 706.792818 355 
L 713.602455 355 
L 713.602455 345.186166 
L 706.792818 345.186166 
z
" clip-path="url(#p9328a8d642)" style="fill: #d95319; opacity: 0.5"/>
   </g>
   <g id="patch_89">
    <path d="M 713.602455 355 
L 720.412091 355 
L 720.412091 347.402193 
L 713.602455 347.402193 
z
" clip-path="url(#p9328a8d642)" style="fill: #d95319; opacity: 0.5"/>
   </g>
   <g id="patch_90">
    <path d="M 720.412091 355 
L 727.221727 355 
L 727.221727 344.236441 
L 720.412091 344.236441 
z
" clip-path="url(#p9328a8d642)" style="fill: #d95319; opacity: 0.5"/>
   </g>
   <g id="patch_91">
    <path d="M 727.221727 355 
L 734.031364 355 
L 734.031364 347.085618 
L 727.221727 347.085618 
z
" clip-path="url(#p9328a8d642)" style="fill: #d95319; opacity: 0.5"/>
   </g>
   <g id="patch_92">
    <path d="M 734.031364 355 
L 740.841 355 
L 740.841 350.884521 
L 734.031364 350.884521 
z
" clip-path="url(#p9328a8d642)" style="fill: #d95319; opacity: 0.5"/>
   </g>
   <g id="patch_93">
    <path d="M 740.841 355 
L 747.650636 355 
L 747.650636 350.251371 
L 740.841 350.251371 
z
" clip-path="url(#p9328a8d642)" style="fill: #d95319; opacity: 0.5"/>
   </g>
   <g id="patch_94">
    <path d="M 747.650636 355 
L 754.460273 355 
L 754.460273 351.834247 
L 747.650636 351.834247 
z
" clip-path="url(#p9328a8d642)" style="fill: #d95319; opacity: 0.5"/>
   </g>
   <g id="patch_95">
    <path d="M 754.460273 355 
L 761.269909 355 
L 761.269909 352.783973 
L 754.460273 352.783973 
z
" clip-path="url(#p9328a8d642)" style="fill: #d95319; opacity: 0.5"/>
   </g>
   <g id="patch_96">
    <path d="M 761.269909 355 
L 768.079545 355 
L 768.079545 353.100548 
L 761.269909 353.100548 
z
" clip-path="url(#p9328a8d642)" style="fill: #d95319; opacity: 0.5"/>
   </g>
   <g id="patch_97">
    <path d="M 768.079545 355 
L 774.889182 355 
L 774.889182 353.417124 
L 768.079545 353.417124 
z
" clip-path="url(#p9328a8d642)" style="fill: #d95319; opacity: 0.5"/>
   </g>
   <g id="patch_98">
    <path d="M 774.889182 355 
L 781.698818 355 
L 781.698818 352.783973 
L 774.889182 352.783973 
z
" clip-path="url(#p9328a8d642)" style="fill: #d95319; opacity: 0.5"/>
   </g>
   <g id="patch_99">
    <path d="M 781.698818 355 
L 788.508455 355 
L 788.508455 355 
L 781.698818 355 
z
" clip-path="url(#p9328a8d642)" style="fill: #d95319; opacity: 0.5"/>
   </g>
   <g id="patch_100">
    <path d="M 788.508455 355 
L 795.318091 355 
L 795.318091 354.366849 
L 788.508455 354.366849 
z
" clip-path="url(#p9328a8d642)" style="fill: #d95319; opacity: 0.5"/>
   </g>
   <g id="patch_101">
    <path d="M 795.318091 355 
L 802.127727 355 
L 802.127727 355 
L 795.318091 355 
z
" clip-path="url(#p9328a8d642)" style="fill: #d95319; opacity: 0.5"/>
   </g>
   <g id="patch_102">
    <path d="M 802.127727 355 
L 808.937364 355 
L 808.937364 354.683425 
L 802.127727 354.683425 
z
" clip-path="url(#p9328a8d642)" style="fill: #d95319; opacity: 0.5"/>
   </g>
   <g id="patch_103">
    <path d="M 808.937364 355 
L 815.747 355 
L 815.747 355 
L 808.937364 355 
z
" clip-path="url(#p9328a8d642)" style="fill: #d95319; opacity: 0.5"/>
   </g>
   <g id="patch_104">
    <path d="M 815.747 355 
L 822.556636 355 
L 822.556636 355 
L 815.747 355 
z
" clip-path="url(#p9328a8d642)" style="fill: #d95319; opacity: 0.5"/>
   </g>
   <g id="patch_105">
    <path d="M 822.556636 355 
L 829.366273 355 
L 829.366273 355 
L 822.556636 355 
z
" clip-path="url(#p9328a8d642)" style="fill: #d95319; opacity: 0.5"/>
   </g>
   <g id="patch_106">
    <path d="M 829.366273 355 
L 836.175909 355 
L 836.175909 354.366849 
L 829.366273 354.366849 
z
" clip-path="url(#p9328a8d642)" style="fill: #d95319; opacity: 0.5"/>
   </g>
   <g id="matplotlib.axis_3">
    <g id="xtick_7">
     <g id="line2d_18">
      <g>
       <use xlink:href="#m4b24dfd430" x="495.694091" y="355" style="stroke: #000000; stroke-width: 0.8"/>
      </g>
     </g>
     <g id="text_18">
      <!-- 0 -->
      <g transform="translate(492.512841 369.598437) scale(0.1 -0.1)">
       <use xlink:href="#DejaVuSans-30"/>
      </g>
     </g>
    </g>
    <g id="xtick_8">
     <g id="line2d_19">
      <g>
       <use xlink:href="#m4b24dfd430" x="564.046273" y="355" style="stroke: #000000; stroke-width: 0.8"/>
      </g>
     </g>
     <g id="text_19">
      <!-- 2 -->
      <g transform="translate(560.865023 369.598437) scale(0.1 -0.1)">
       <use xlink:href="#DejaVuSans-32"/>
      </g>
     </g>
    </g>
    <g id="xtick_9">
     <g id="line2d_20">
      <g>
       <use xlink:href="#m4b24dfd430" x="632.398455" y="355" style="stroke: #000000; stroke-width: 0.8"/>
      </g>
     </g>
     <g id="text_20">
      <!-- 4 -->
      <g transform="translate(629.217205 369.598437) scale(0.1 -0.1)">
       <use xlink:href="#DejaVuSans-34"/>
      </g>
     </g>
    </g>
    <g id="xtick_10">
     <g id="line2d_21">
      <g>
       <use xlink:href="#m4b24dfd430" x="700.750637" y="355" style="stroke: #000000; stroke-width: 0.8"/>
      </g>
     </g>
     <g id="text_21">
      <!-- 6 -->
      <g transform="translate(697.569387 369.598437) scale(0.1 -0.1)">
       <use xlink:href="#DejaVuSans-36"/>
      </g>
     </g>
    </g>
    <g id="xtick_11">
     <g id="line2d_22">
      <g>
       <use xlink:href="#m4b24dfd430" x="769.102819" y="355" style="stroke: #000000; stroke-width: 0.8"/>
      </g>
     </g>
     <g id="text_22">
      <!-- 8 -->
      <g transform="translate(765.921569 369.598437) scale(0.1 -0.1)">
       <use xlink:href="#DejaVuSans-38"/>
      </g>
     </g>
    </g>
    <g id="xtick_12">
     <g id="line2d_23">
      <g>
       <use xlink:href="#m4b24dfd430" x="837.455" y="355" style="stroke: #000000; stroke-width: 0.8"/>
      </g>
     </g>
     <g id="text_23">
      <!-- 10 -->
      <g transform="translate(831.0925 369.598437) scale(0.1 -0.1)">
       <use xlink:href="#DejaVuSans-31"/>
       <use xlink:href="#DejaVuSans-30" transform="translate(63.623047 0)"/>
      </g>
     </g>
    </g>
    <g id="text_24">
     <!-- Score (max -log10 p-value) -->
     <g transform="translate(598.076406 383.276562) scale(0.1 -0.1)">
      <defs>
       <path id="DejaVuSans-6f" d="M 1959 3097 
Q 1497 3097 1228 2736 
Q 959 2375 959 1747 
Q 959 1119 1226 758 
Q 1494 397 1959 397 
Q 2419 397 2687 759 
Q 2956 1122 2956 1747 
Q 2956 2369 2687 2733 
Q 2419 3097 1959 3097 
z
M 1959 3584 
Q 2709 3584 3137 3096 
Q 3566 2609 3566 1747 
Q 3566 888 3137 398 
Q 2709 -91 1959 -91 
Q 1206 -91 779 398 
Q 353 888 353 1747 
Q 353 2609 779 3096 
Q 1206 3584 1959 3584 
z
" transform="scale(0.015625)"/>
       <path id="DejaVuSans-72" d="M 2631 2963 
Q 2534 3019 2420 3045 
Q 2306 3072 2169 3072 
Q 1681 3072 1420 2755 
Q 1159 2438 1159 1844 
L 1159 0 
L 581 0 
L 581 3500 
L 1159 3500 
L 1159 2956 
Q 1341 3275 1631 3429 
Q 1922 3584 2338 3584 
Q 2397 3584 2469 3576 
Q 2541 3569 2628 3553 
L 2631 2963 
z
" transform="scale(0.015625)"/>
       <path id="DejaVuSans-65" d="M 3597 1894 
L 3597 1613 
L 953 1613 
Q 991 1019 1311 708 
Q 1631 397 2203 397 
Q 2534 397 2845 478 
Q 3156 559 3463 722 
L 3463 178 
Q 3153 47 2828 -22 
Q 2503 -91 2169 -91 
Q 1331 -91 842 396 
Q 353 884 353 1716 
Q 353 2575 817 3079 
Q 1281 3584 2069 3584 
Q 2775 3584 3186 3129 
Q 3597 2675 3597 1894 
z
M 3022 2063 
Q 3016 2534 2758 2815 
Q 2500 3097 2075 3097 
Q 1594 3097 1305 2825 
Q 1016 2553 972 2059 
L 3022 2063 
z
" transform="scale(0.015625)"/>
       <path id="DejaVuSans-6d" d="M 3328 2828 
Q 3544 3216 3844 3400 
Q 4144 3584 4550 3584 
Q 5097 3584 5394 3201 
Q 5691 2819 5691 2113 
L 5691 0 
L 5113 0 
L 5113 2094 
Q 5113 2597 4934 2840 
Q 4756 3084 4391 3084 
Q 3944 3084 3684 2787 
Q 3425 2491 3425 1978 
L 3425 0 
L 2847 0 
L 2847 2094 
Q 2847 2600 2669 2842 
Q 2491 3084 2119 3084 
Q 1678 3084 1418 2786 
Q 1159 2488 1159 1978 
L 1159 0 
L 581 0 
L 581 3500 
L 1159 3500 
L 1159 2956 
Q 1356 3278 1631 3431 
Q 1906 3584 2284 3584 
Q 2666 3584 2933 3390 
Q 3200 3197 3328 2828 
z
" transform="scale(0.015625)"/>
       <path id="DejaVuSans-78" d="M 3513 3500 
L 2247 1797 
L 3578 0 
L 2900 0 
L 1881 1375 
L 863 0 
L 184 0 
L 1544 1831 
L 300 3500 
L 978 3500 
L 1906 2253 
L 2834 3500 
L 3513 3500 
z
" transform="scale(0.015625)"/>
       <path id="DejaVuSans-2d" d="M 313 2009 
L 1997 2009 
L 1997 1497 
L 313 1497 
L 313 2009 
z
" transform="scale(0.015625)"/>
       <path id="DejaVuSans-67" d="M 2906 1791 
Q 2906 2416 2648 2759 
Q 2391 3103 1925 3103 
Q 1463 3103 1205 2759 
Q 947 2416 947 1791 
Q 947 1169 1205 825 
Q 1463 481 1925 481 
Q 2391 481 2648 825 
Q 2906 1169 2906 1791 
z
M 3481 434 
Q 3481 -459 3084 -895 
Q 2688 -1331 1869 -1331 
Q 1566 -1331 1297 -1286 
Q 1028 -1241 775 -1147 
L 775 -588 
Q 1028 -725 1275 -790 
Q 1522 -856 1778 -856 
Q 2344 -856 2625 -561 
Q 2906 -266 2906 331 
L 2906 616 
Q 2728 306 2450 153 
Q 2172 0 1784 0 
Q 1141 0 747 490 
Q 353 981 353 1791 
Q 353 2603 747 3093 
Q 1141 3584 1784 3584 
Q 2172 3584 2450 3431 
Q 2728 3278 2906 2969 
L 2906 3500 
L 3481 3500 
L 3481 434 
z
" transform="scale(0.015625)"/>
       <path id="DejaVuSans-70" d="M 1159 525 
L 1159 -1331 
L 581 -1331 
L 581 3500 
L 1159 3500 
L 1159 2969 
Q 1341 3281 1617 3432 
Q 1894 3584 2278 3584 
Q 2916 3584 3314 3078 
Q 3713 2572 3713 1747 
Q 3713 922 3314 415 
Q 2916 -91 2278 -91 
Q 1894 -91 1617 61 
Q 1341 213 1159 525 
z
M 3116 1747 
Q 3116 2381 2855 2742 
Q 2594 3103 2138 3103 
Q 1681 3103 1420 2742 
Q 1159 2381 1159 1747 
Q 1159 1113 1420 752 
Q 1681 391 2138 391 
Q 2594 391 2855 752 
Q 3116 1113 3116 1747 
z
" transform="scale(0.015625)"/>
       <path id="DejaVuSans-75" d="M 544 1381 
L 544 3500 
L 1119 3500 
L 1119 1403 
Q 1119 906 1312 657 
Q 1506 409 1894 409 
Q 2359 409 2629 706 
Q 2900 1003 2900 1516 
L 2900 3500 
L 3475 3500 
L 3475 0 
L 2900 0 
L 2900 538 
Q 2691 219 2414 64 
Q 2138 -91 1772 -91 
Q 1169 -91 856 284 
Q 544 659 544 1381 
z
M 1991 3584 
L 1991 3584 
z
" transform="scale(0.015625)"/>
      </defs>
      <use xlink:href="#DejaVuSans-53"/>
      <use xlink:href="#DejaVuSans-63" transform="translate(63.476562 0)"/>
      <use xlink:href="#DejaVuSans-6f" transform="translate(118.457031 0)"/>
      <use xlink:href="#DejaVuSans-72" transform="translate(179.638672 0)"/>
      <use xlink:href="#DejaVuSans-65" transform="translate(218.501953 0)"/>
      <use xlink:href="#DejaVuSans-20" transform="translate(280.025391 0)"/>
      <use xlink:href="#DejaVuSans-28" transform="translate(311.8125 0)"/>
      <use xlink:href="#DejaVuSans-6d" transform="translate(350.826172 0)"/>
      <use xlink:href="#DejaVuSans-61" transform="translate(448.238281 0)"/>
      <use xlink:href="#DejaVuSans-78" transform="translate(509.517578 0)"/>
      <use xlink:href="#DejaVuSans-20" transform="translate(568.697266 0)"/>
      <use xlink:href="#DejaVuSans-2d" transform="translate(600.484375 0)"/>
      <use xlink:href="#DejaVuSans-6c" transform="translate(636.568359 0)"/>
      <use xlink:href="#DejaVuSans-6f" transform="translate(664.351562 0)"/>
      <use xlink:href="#DejaVuSans-67" transform="translate(725.533203 0)"/>
      <use xlink:href="#DejaVuSans-31" transform="translate(789.009766 0)"/>
      <use xlink:href="#DejaVuSans-30" transform="translate(852.632812 0)"/>
      <use xlink:href="#DejaVuSans-20" transform="translate(916.255859 0)"/>
      <use xlink:href="#DejaVuSans-70" transform="translate(948.042969 0)"/>
      <use xlink:href="#DejaVuSans-2d" transform="translate(1011.519531 0)"/>
      <use xlink:href="#DejaVuSans-76" transform="translate(1044.978516 0)"/>
      <use xlink:href="#DejaVuSans-61" transform="translate(1104.158203 0)"/>
      <use xlink:href="#DejaVuSans-6c" transform="translate(1165.4375 0)"/>
      <use xlink:href="#DejaVuSans-75" transform="translate(1193.220703 0)"/>
      <use xlink:href="#DejaVuSans-65" transform="translate(1256.599609 0)"/>
      <use xlink:href="#DejaVuSans-29" transform="translate(1318.123047 0)"/>
     </g>
    </g>
   </g>
   <g id="matplotlib.axis_4">
    <g id="ytick_7">
     <g id="line2d_24">
      <g>
       <use xlink:href="#m04c792e025" x="478.67" y="355" style="stroke: #000000; stroke-width: 0.8"/>
      </g>
     </g>
     <g id="text_25">
      <!-- 0 -->
      <g transform="translate(465.3075 358.799219) scale(0.1 -0.1)">
       <use xlink:href="#DejaVuSans-30"/>
      </g>
     </g>
    </g>
    <g id="ytick_8">
     <g id="line2d_25">
      <g>
       <use xlink:href="#m04c792e025" x="478.67" y="291.684945" style="stroke: #000000; stroke-width: 0.8"/>
      </g>
     </g>
     <g id="text_26">
      <!-- 200 -->
      <g transform="translate(452.5825 295.484163) scale(0.1 -0.1)">
       <use xlink:href="#DejaVuSans-32"/>
       <use xlink:href="#DejaVuSans-30" transform="translate(63.623047 0)"/>
       <use xlink:href="#DejaVuSans-30" transform="translate(127.246094 0)"/>
      </g>
     </g>
    </g>
    <g id="ytick_9">
     <g id="line2d_26">
      <g>
       <use xlink:href="#m04c792e025" x="478.67" y="228.369889" style="stroke: #000000; stroke-width: 0.8"/>
      </g>
     </g>
     <g id="text_27">
      <!-- 400 -->
      <g transform="translate(452.5825 232.169108) scale(0.1 -0.1)">
       <use xlink:href="#DejaVuSans-34"/>
       <use xlink:href="#DejaVuSans-30" transform="translate(63.623047 0)"/>
       <use xlink:href="#DejaVuSans-30" transform="translate(127.246094 0)"/>
      </g>
     </g>
    </g>
    <g id="ytick_10">
     <g id="line2d_27">
      <g>
       <use xlink:href="#m04c792e025" x="478.67" y="165.054834" style="stroke: #000000; stroke-width: 0.8"/>
      </g>
     </g>
     <g id="text_28">
      <!-- 600 -->
      <g transform="translate(452.5825 168.854053) scale(0.1 -0.1)">
       <use xlink:href="#DejaVuSans-36"/>
       <use xlink:href="#DejaVuSans-30" transform="translate(63.623047 0)"/>
       <use xlink:href="#DejaVuSans-30" transform="translate(127.246094 0)"/>
      </g>
     </g>
    </g>
    <g id="ytick_11">
     <g id="line2d_28">
      <g>
       <use xlink:href="#m04c792e025" x="478.67" y="101.739779" style="stroke: #000000; stroke-width: 0.8"/>
      </g>
     </g>
     <g id="text_29">
      <!-- 800 -->
      <g transform="translate(452.5825 105.538997) scale(0.1 -0.1)">
       <use xlink:href="#DejaVuSans-38"/>
       <use xlink:href="#DejaVuSans-30" transform="translate(63.623047 0)"/>
       <use xlink:href="#DejaVuSans-30" transform="translate(127.246094 0)"/>
      </g>
     </g>
    </g>
    <g id="ytick_12">
     <g id="line2d_29">
      <g>
       <use xlink:href="#m04c792e025" x="478.67" y="38.424723" style="stroke: #000000; stroke-width: 0.8"/>
      </g>
     </g>
     <g id="text_30">
      <!-- 1000 -->
      <g transform="translate(446.22 42.223942) scale(0.1 -0.1)">
       <use xlink:href="#DejaVuSans-31"/>
       <use xlink:href="#DejaVuSans-30" transform="translate(63.623047 0)"/>
       <use xlink:href="#DejaVuSans-30" transform="translate(127.246094 0)"/>
       <use xlink:href="#DejaVuSans-30" transform="translate(190.869141 0)"/>
      </g>
     </g>
    </g>
    <g id="text_31">
     <!-- Count -->
     <g transform="translate(440.140313 205.308437) rotate(-90) scale(0.1 -0.1)">
      <defs>
       <path id="DejaVuSans-6e" d="M 3513 2113 
L 3513 0 
L 2938 0 
L 2938 2094 
Q 2938 2591 2744 2837 
Q 2550 3084 2163 3084 
Q 1697 3084 1428 2787 
Q 1159 2491 1159 1978 
L 1159 0 
L 581 0 
L 581 3500 
L 1159 3500 
L 1159 2956 
Q 1366 3272 1645 3428 
Q 1925 3584 2291 3584 
Q 2894 3584 3203 3211 
Q 3513 2838 3513 2113 
z
" transform="scale(0.015625)"/>
       <path id="DejaVuSans-74" d="M 1172 4494 
L 1172 3500 
L 2356 3500 
L 2356 3053 
L 1172 3053 
L 1172 1153 
Q 1172 725 1289 603 
Q 1406 481 1766 481 
L 2356 481 
L 2356 0 
L 1766 0 
Q 1100 0 847 248 
Q 594 497 594 1153 
L 594 3053 
L 172 3053 
L 172 3500 
L 594 3500 
L 594 4494 
L 1172 4494 
z
" transform="scale(0.015625)"/>
      </defs>
      <use xlink:href="#DejaVuSans-43"/>
      <use xlink:href="#DejaVuSans-6f" transform="translate(69.824219 0)"/>
      <use xlink:href="#DejaVuSans-75" transform="translate(131.005859 0)"/>
      <use xlink:href="#DejaVuSans-6e" transform="translate(194.384766 0)"/>
      <use xlink:href="#DejaVuSans-74" transform="translate(257.763672 0)"/>
     </g>
    </g>
   </g>
   <g id="patch_107">
    <path d="M 495.694091 355 
L 495.694091 75.147456 
L 499.914991 75.147456 
L 499.914991 355 
L 504.135891 355 
L 504.135891 355 
L 508.356791 355 
L 508.356791 355 
L 512.577691 355 
L 512.577691 355 
L 516.798591 355 
L 516.798591 355 
L 521.019491 355 
L 521.019491 355 
L 525.240391 355 
L 525.240391 355 
L 529.461291 355 
L 529.461291 355 
L 533.682191 355 
L 533.682191 355 
L 537.903091 355 
L 537.903091 355 
L 542.123991 355 
L 542.123991 355 
L 546.344891 355 
L 546.344891 355 
L 550.565791 355 
L 550.565791 355 
L 554.786691 355 
L 554.786691 355 
L 559.007591 355 
L 559.007591 355 
L 563.228491 355 
L 563.228491 355 
L 567.449391 355 
L 567.449391 355 
L 571.670291 355 
L 571.670291 355 
L 575.891191 355 
L 575.891191 355 
L 580.112091 355 
L 580.112091 355 
L 584.332991 355 
L 584.332991 355 
L 588.553891 355 
L 588.553891 355 
L 592.774792 355 
L 592.774792 355 
L 596.995692 355 
L 596.995692 355 
L 601.216592 355 
L 601.216592 355 
L 605.437492 355 
L 605.437492 355 
L 609.658392 355 
L 609.658392 355 
L 613.879292 355 
L 613.879292 355 
L 618.100192 355 
L 618.100192 355 
L 622.321092 355 
L 622.321092 355 
L 626.541992 355 
L 626.541992 355 
L 630.762892 355 
L 630.762892 350.884521 
L 634.983792 350.884521 
L 634.983792 347.085618 
L 639.204692 347.085618 
L 639.204692 350.884521 
L 643.425592 350.884521 
L 643.425592 352.150823 
L 647.646492 352.150823 
L 647.646492 351.517672 
L 651.867392 351.517672 
L 651.867392 350.567946 
L 656.088292 350.567946 
L 656.088292 351.834247 
L 660.309192 351.834247 
L 660.309192 352.467398 
L 664.530092 352.467398 
L 664.530092 354.683425 
L 668.750992 354.683425 
L 668.750992 354.050274 
L 672.971892 354.050274 
L 672.971892 354.050274 
L 677.192792 354.050274 
L 677.192792 354.366849 
L 681.413692 354.366849 
L 681.413692 355 
L 685.634592 355 
L 685.634592 355 
L 689.855492 355 
L 689.855492 354.683425 
L 694.076392 354.683425 
L 694.076392 354.683425 
L 698.297292 354.683425 
L 698.297292 354.683425 
L 702.518192 354.683425 
L 702.518192 354.683425 
L 706.739092 354.683425 
L 706.739092 355 
" clip-path="url(#p9328a8d642)" style="fill: none; opacity: 0.3; stroke: #002d62; stroke-width: 2; stroke-linejoin: miter"/>
   </g>
   <g id="patch_108">
    <path d="M 495.694091 355 
L 495.694091 41.590476 
L 498.801847 41.590476 
L 498.801847 355 
L 501.909603 355 
L 501.909603 355 
L 505.017359 355 
L 505.017359 355 
L 508.125115 355 
L 508.125115 355 
L 511.232872 355 
L 511.232872 355 
L 514.340628 355 
L 514.340628 355 
L 517.448384 355 
L 517.448384 355 
L 520.55614 355 
L 520.55614 355 
L 523.663896 355 
L 523.663896 355 
L 526.771652 355 
L 526.771652 355 
L 529.879408 355 
L 529.879408 355 
L 532.987164 355 
L 532.987164 355 
L 536.09492 355 
L 536.09492 355 
L 539.202677 355 
L 539.202677 355 
L 542.310433 355 
L 542.310433 355 
L 545.418189 355 
L 545.418189 355 
L 548.525945 355 
L 548.525945 355 
L 551.633701 355 
L 551.633701 355 
L 554.741457 355 
L 554.741457 355 
L 557.849213 355 
L 557.849213 355 
L 560.956969 355 
L 560.956969 355 
L 564.064726 355 
L 564.064726 355 
L 567.172482 355 
L 567.172482 355 
L 570.280238 355 
L 570.280238 355 
L 573.387994 355 
L 573.387994 355 
L 576.49575 355 
L 576.49575 355 
L 579.603506 355 
L 579.603506 355 
L 582.711262 355 
L 582.711262 355 
L 585.819018 355 
L 585.819018 355 
L 588.926774 355 
L 588.926774 355 
L 592.034531 355 
L 592.034531 355 
L 595.142287 355 
L 595.142287 355 
L 598.250043 355 
L 598.250043 355 
L 601.357799 355 
L 601.357799 355 
L 604.465555 355 
L 604.465555 355 
L 607.573311 355 
L 607.573311 355 
L 610.681067 355 
L 610.681067 355 
L 613.788823 355 
L 613.788823 355 
L 616.89658 355 
L 616.89658 355 
L 620.004336 355 
L 620.004336 355 
L 623.112092 355 
L 623.112092 355 
L 626.219848 355 
L 626.219848 355 
L 629.327604 355 
L 629.327604 355 
L 632.43536 355 
L 632.43536 354.050274 
L 635.543116 354.050274 
L 635.543116 354.050274 
L 638.650872 354.050274 
L 638.650872 354.366849 
L 641.758629 354.366849 
L 641.758629 354.683425 
L 644.866385 354.683425 
L 644.866385 355 
L 647.974141 355 
L 647.974141 354.683425 
L 651.081897 354.683425 
L 651.081897 355 
" clip-path="url(#p9328a8d642)" style="fill: none; opacity: 0.3; stroke: #d95319; stroke-width: 2; stroke-linejoin: miter"/>
   </g>
   <g id="patch_109">
    <path d="M 478.67 355 
L 478.67 25.92 
" style="fill: none; stroke: #000000; stroke-width: 0.8; stroke-linejoin: miter; stroke-linecap: square"/>
   </g>
   <g id="patch_110">
    <path d="M 478.67 355 
L 853.2 355 
" style="fill: none; stroke: #000000; stroke-width: 0.8; stroke-linejoin: miter; stroke-linecap: square"/>
   </g>
   <g id="text_32">
    <!-- Score Distribution -->
    <g transform="translate(612.222813 19.92) scale(0.12 -0.12)">
     <defs>
      <path id="DejaVuSans-44" d="M 1259 4147 
L 1259 519 
L 2022 519 
Q 2988 519 3436 956 
Q 3884 1394 3884 2338 
Q 3884 3275 3436 3711 
Q 2988 4147 2022 4147 
L 1259 4147 
z
M 628 4666 
L 1925 4666 
Q 3281 4666 3915 4102 
Q 4550 3538 4550 2338 
Q 4550 1131 3912 565 
Q 3275 0 1925 0 
L 628 0 
L 628 4666 
z
" transform="scale(0.015625)"/>
      <path id="DejaVuSans-62" d="M 3116 1747 
Q 3116 2381 2855 2742 
Q 2594 3103 2138 3103 
Q 1681 3103 1420 2742 
Q 1159 2381 1159 1747 
Q 1159 1113 1420 752 
Q 1681 391 2138 391 
Q 2594 391 2855 752 
Q 3116 1113 3116 1747 
z
M 1159 2969 
Q 1341 3281 1617 3432 
Q 1894 3584 2278 3584 
Q 2916 3584 3314 3078 
Q 3713 2572 3713 1747 
Q 3713 922 3314 415 
Q 2916 -91 2278 -91 
Q 1894 -91 1617 61 
Q 1341 213 1159 525 
L 1159 0 
L 581 0 
L 581 4863 
L 1159 4863 
L 1159 2969 
z
" transform="scale(0.015625)"/>
     </defs>
     <use xlink:href="#DejaVuSans-53"/>
     <use xlink:href="#DejaVuSans-63" transform="translate(63.476562 0)"/>
     <use xlink:href="#DejaVuSans-6f" transform="translate(118.457031 0)"/>
     <use xlink:href="#DejaVuSans-72" transform="translate(179.638672 0)"/>
     <use xlink:href="#DejaVuSans-65" transform="translate(218.501953 0)"/>
     <use xlink:href="#DejaVuSans-20" transform="translate(280.025391 0)"/>
     <use xlink:href="#DejaVuSans-44" transform="translate(311.8125 0)"/>
     <use xlink:href="#DejaVuSans-69" transform="translate(388.814453 0)"/>
     <use xlink:href="#DejaVuSans-73" transform="translate(416.597656 0)"/>
     <use xlink:href="#DejaVuSans-74" transform="translate(468.697266 0)"/>
     <use xlink:href="#DejaVuSans-72" transform="translate(507.90625 0)"/>
     <use xlink:href="#DejaVuSans-69" transform="translate(549.019531 0)"/>
     <use xlink:href="#DejaVuSans-62" transform="translate(576.802734 0)"/>
     <use xlink:href="#DejaVuSans-75" transform="translate(640.279297 0)"/>
     <use xlink:href="#DejaVuSans-74" transform="translate(703.658203 0)"/>
     <use xlink:href="#DejaVuSans-69" transform="translate(742.867188 0)"/>
     <use xlink:href="#DejaVuSans-6f" transform="translate(770.650391 0)"/>
     <use xlink:href="#DejaVuSans-6e" transform="translate(831.832031 0)"/>
    </g>
   </g>
   <g id="legend_2">
    <g id="patch_111">
     <path d="M 764.167656 72.61875 
L 848.3 72.61875 
Q 849.7 72.61875 849.7 71.21875 
L 849.7 30.82 
Q 849.7 29.42 848.3 29.42 
L 764.167656 29.42 
Q 762.767656 29.42 762.767656 30.82 
L 762.767656 71.21875 
Q 762.767656 72.61875 764.167656 72.61875 
z
" style="fill: #ffffff; opacity: 0.8; stroke: #cccccc; stroke-linejoin: miter"/>
    </g>
    <g id="patch_112">
     <path d="M 765.567656 37.538906 
L 779.567656 37.538906 
L 779.567656 32.638906 
L 765.567656 32.638906 
z
" style="fill: #002d62; opacity: 0.5"/>
    </g>
    <g id="text_33">
     <!-- STREME pos -->
     <g transform="translate(785.167656 37.538906) scale(0.07 -0.07)">
      <use xlink:href="#DejaVuSans-53"/>
      <use xlink:href="#DejaVuSans-54" transform="translate(63.476562 0)"/>
      <use xlink:href="#DejaVuSans-52" transform="translate(124.560547 0)"/>
      <use xlink:href="#DejaVuSans-45" transform="translate(194.042969 0)"/>
      <use xlink:href="#DejaVuSans-4d" transform="translate(257.226562 0)"/>
      <use xlink:href="#DejaVuSans-45" transform="translate(343.505859 0)"/>
      <use xlink:href="#DejaVuSans-20" transform="translate(406.689453 0)"/>
      <use xlink:href="#DejaVuSans-70" transform="translate(438.476562 0)"/>
      <use xlink:href="#DejaVuSans-6f" transform="translate(501.953125 0)"/>
      <use xlink:href="#DejaVuSans-73" transform="translate(563.134766 0)"/>
     </g>
    </g>
    <g id="patch_113">
     <path d="M 765.567656 47.813594 
L 779.567656 47.813594 
L 779.567656 42.913594 
L 765.567656 42.913594 
L 765.567656 47.813594 
z
" style="fill: none; opacity: 0.3; stroke: #002d62; stroke-width: 2; stroke-linejoin: miter"/>
    </g>
    <g id="text_34">
     <!-- STREME neg -->
     <g transform="translate(785.167656 47.813594) scale(0.07 -0.07)">
      <use xlink:href="#DejaVuSans-53"/>
      <use xlink:href="#DejaVuSans-54" transform="translate(63.476562 0)"/>
      <use xlink:href="#DejaVuSans-52" transform="translate(124.560547 0)"/>
      <use xlink:href="#DejaVuSans-45" transform="translate(194.042969 0)"/>
      <use xlink:href="#DejaVuSans-4d" transform="translate(257.226562 0)"/>
      <use xlink:href="#DejaVuSans-45" transform="translate(343.505859 0)"/>
      <use xlink:href="#DejaVuSans-20" transform="translate(406.689453 0)"/>
      <use xlink:href="#DejaVuSans-6e" transform="translate(438.476562 0)"/>
      <use xlink:href="#DejaVuSans-65" transform="translate(501.855469 0)"/>
      <use xlink:href="#DejaVuSans-67" transform="translate(563.378906 0)"/>
     </g>
    </g>
    <g id="patch_114">
     <path d="M 765.567656 58.088281 
L 779.567656 58.088281 
L 779.567656 53.188281 
L 765.567656 53.188281 
z
" style="fill: #d95319; opacity: 0.5"/>
    </g>
    <g id="text_35">
     <!-- MEME classic pos -->
     <g transform="translate(785.167656 58.088281) scale(0.07 -0.07)">
      <use xlink:href="#DejaVuSans-4d"/>
      <use xlink:href="#DejaVuSans-45" transform="translate(86.279297 0)"/>
      <use xlink:href="#DejaVuSans-4d" transform="translate(149.462891 0)"/>
      <use xlink:href="#DejaVuSans-45" transform="translate(235.742188 0)"/>
      <use xlink:href="#DejaVuSans-20" transform="translate(298.925781 0)"/>
      <use xlink:href="#DejaVuSans-63" transform="translate(330.712891 0)"/>
      <use xlink:href="#DejaVuSans-6c" transform="translate(385.693359 0)"/>
      <use xlink:href="#DejaVuSans-61" transform="translate(413.476562 0)"/>
      <use xlink:href="#DejaVuSans-73" transform="translate(474.755859 0)"/>
      <use xlink:href="#DejaVuSans-73" transform="translate(526.855469 0)"/>
      <use xlink:href="#DejaVuSans-69" transform="translate(578.955078 0)"/>
      <use xlink:href="#DejaVuSans-63" transform="translate(606.738281 0)"/>
      <use xlink:href="#DejaVuSans-20" transform="translate(661.71875 0)"/>
      <use xlink:href="#DejaVuSans-70" transform="translate(693.505859 0)"/>
      <use xlink:href="#DejaVuSans-6f" transform="translate(756.982422 0)"/>
      <use xlink:href="#DejaVuSans-73" transform="translate(818.164062 0)"/>
     </g>
    </g>
    <g id="patch_115">
     <path d="M 765.567656 68.362969 
L 779.567656 68.362969 
L 779.567656 63.462969 
L 765.567656 63.462969 
L 765.567656 68.362969 
z
" style="fill: none; opacity: 0.3; stroke: #d95319; stroke-width: 2; stroke-linejoin: miter"/>
    </g>
    <g id="text_36">
     <!-- MEME classic neg -->
     <g transform="translate(785.167656 68.362969) scale(0.07 -0.07)">
      <use xlink:href="#DejaVuSans-4d"/>
      <use xlink:href="#DejaVuSans-45" transform="translate(86.279297 0)"/>
      <use xlink:href="#DejaVuSans-4d" transform="translate(149.462891 0)"/>
      <use xlink:href="#DejaVuSans-45" transform="translate(235.742188 0)"/>
      <use xlink:href="#DejaVuSans-20" transform="translate(298.925781 0)"/>
      <use xlink:href="#DejaVuSans-63" transform="translate(330.712891 0)"/>
      <use xlink:href="#DejaVuSans-6c" transform="translate(385.693359 0)"/>
      <use xlink:href="#DejaVuSans-61" transform="translate(413.476562 0)"/>
      <use xlink:href="#DejaVuSans-73" transform="translate(474.755859 0)"/>
      <use xlink:href="#DejaVuSans-73" transform="translate(526.855469 0)"/>
      <use xlink:href="#DejaVuSans-69" transform="translate(578.955078 0)"/>
      <use xlink:href="#DejaVuSans-63" transform="translate(606.738281 0)"/>
      <use xlink:href="#DejaVuSans-20" transform="translate(661.71875 0)"/>
      <use xlink:href="#DejaVuSans-6e" transform="translate(693.505859 0)"/>
      <use xlink:href="#DejaVuSans-65" transform="translate(756.884766 0)"/>
      <use xlink:href="#DejaVuSans-67" transform="translate(818.408203 0)"/>
     </g>
    </g>
   </g>
  </g>
 </g>
 <defs>
  <clipPath id="pc5ef4dbf00">
   <rect x="47.3" y="25.92" width="374.53" height="329.08"/>
  </clipPath>
  <clipPath id="p9328a8d642">
   <rect x="478.67" y="25.92" width="374.53" height="329.08"/>
  </clipPath>
 </defs>
</svg>
